<svg xmlns="http://www.w3.org/2000/svg" width="370" height="201"><rect id="backgroundrect" width="100%" height="100%" x="0" y="0" fill="none" stroke="none"/>
  <style>
    .st1{fill:#1f1e33}
  </style>
  <linearGradient id="SVGID_1_" x1="0.1463555246591568" y1="0.8531801700592041" x2="0.84996098279953" y2="0.14674678444862366">
    <stop offset="0" stop-color="#48bcb9"/>
    <stop offset=".3342" stop-color="#5891ad"/>
    <stop offset="1" stop-color="#7d3392"/>
  </linearGradient>
  
  
<g class="currentLayer" style=""><title>Layer 1</title><path d="M242.20000076293945,68.7 c-1.8,0 -3.4,0.9 -4.2,2.4 l-18.4,-7.6 c0.1,-0.4 0.1,-0.8 0.1,-1.1 c0,-0.4 -0.1,-0.8 -0.1,-1.1 l18.4,-7.6 c0.9,1.4 2.4,2.4 4.2,2.4 c2.7,0 5,-2.2 5,-5 s-2.2,-5 -5,-5 c-2.7,0 -5,2.2 -5,5 c0,0.4 0.1,0.8 0.1,1.1 l-18.4,7.6 c-0.9,-1.4 -2.4,-2.4 -4.2,-2.4 c-2.5,0 -4.5,1.8 -4.9,4.2 h-19.9 v-0.2 c0,-0.1 0,-0.2 -0.1,-0.2 c0,-0.1 0,-0.2 -0.1,-0.2 c0,-0.1 -0.1,-0.2 -0.1,-0.2 c0,-0.1 -0.1,-0.1 -0.1,-0.2 s-0.1,-0.1 -0.1,-0.2 s-0.1,-0.2 -0.1,-0.2 c0,-0.1 -0.1,-0.1 -0.1,-0.2 s-0.1,-0.1 -0.1,-0.2 s-0.1,-0.1 -0.1,-0.2 l14.1,-14.1 c1.9,1.4 4.7,1.2 6.4,-0.5 c1.3,-1.3 1.7000000000000002,-3 1.3,-4.7 l18.4,-7.6 c0.2,0.30000000000000004 0.4,0.6000000000000001 0.7000000000000001,0.9 c1.9,1.9 5.1,1.9 7,0 c1.9,-1.9 1.9,-5.1 0,-7 c-1.9,-1.9 -5.1,-1.9 -7,0 c-1.3,1.3 -1.7000000000000002,3 -1.3,4.7 L210.20000076293945,38.599999999999994 c-0.2,-0.30000000000000004 -0.4,-0.6000000000000001 -0.7000000000000001,-0.9 c-0.30000000000000004,-0.30000000000000004 -0.6000000000000001,-0.5 -0.9,-0.7000000000000001 l7.6,-18.4 c1.6,0.4 3.4,-0.1 4.7,-1.3 c1.9,-1.9 1.9,-5.1 0,-7 c-1.9,-1.9 -5.1,-1.9 -7,0 c-1.9,1.9 -1.9,5.1 0,7 c0.30000000000000004,0.30000000000000004 0.6000000000000001,0.5 0.9,0.7000000000000001 L207.20000076293945,36.4 c-1.6,-0.4 -3.4,0.1 -4.7,1.3 c-1.8,1.8 -1.9,4.5 -0.5,6.4 l-14.1,14.1 c-0.1,0 -0.1,-0.1 -0.2,-0.1 s-0.1,-0.1 -0.2,-0.1 s-0.1,-0.1 -0.2,-0.1 s-0.2,-0.1 -0.2,-0.1 c-0.1,0 -0.1,-0.1 -0.2,-0.1 s-0.1,-0.1 -0.2,-0.1 s-0.2,-0.1 -0.2,-0.1 c-0.1,0 -0.2,0 -0.2,-0.1 c-0.1,0 -0.2,0 -0.2,-0.1 h-0.2 V37.400000000000006 c2.4,-0.4 4.2,-2.4 4.2,-4.9 c0,-1.8 -0.9,-3.4 -2.4,-4.2 l7.6,-18.4 c0.4,0.1 0.8,0.1 1.1,0.1 c2.7,0 5,-2.2 5,-5 s-2.2,-5 -5,-5 c-2.7,0 -5,2.2 -5,5 c0,1.8 0.9,3.4 2.4,4.2 L186.20000076293945,27.700000000000003 c-0.4,-0.1 -0.8,-0.1 -1.1,-0.1 s-0.8,0.1 -1.1,0.1 L176.20000076293945,9.200000000000003 c1.4,-0.9 2.4,-2.4 2.4,-4.2 c0,-2.7 -2.2,-5 -5,-5 s-5,2.2 -5,5 s2.2,5 5,5 c0.4,0 0.8,-0.1 1.1,-0.1 l7.6,18.4 c-1.4,0.9 -2.4,2.4 -2.4,4.2 c0,2.5 1.8,4.5 4.2,4.9 v19.9 h-0.2 c-0.1,0 -0.2,0 -0.2,0.1 c-0.1,0 -0.2,0 -0.2,0.1 c-0.1,0 -0.2,0.1 -0.2,0.1 c-0.1,0 -0.1,0.1 -0.2,0.1 s-0.1,0.1 -0.2,0.1 s-0.2,0.1 -0.2,0.1 c-0.1,0 -0.1,0.1 -0.2,0.1 s-0.1,0.1 -0.2,0.1 s-0.1,0.1 -0.2,0.1 l-14.1,-14.1 c1.4,-1.9 1.2,-4.7 -0.5,-6.4 c-1.3,-1.3 -3,-1.7000000000000002 -4.7,-1.3 L155.20000076293945,17.9 c0.30000000000000004,-0.2 0.6000000000000001,-0.4 0.9,-0.7000000000000001 c1.9,-1.9 1.9,-5.1 0,-7 c-1.9,-1.9 -5.1,-1.9 -7,0 c-1.9,1.9 -1.9,5.1 0,7 c1.3,1.3 3,1.7000000000000002 4.7,1.3 l7.6,18.4 c-0.30000000000000004,0.2 -0.6000000000000001,0.4 -0.9,0.7000000000000001 c-0.30000000000000004,0.30000000000000004 -0.5,0.6000000000000001 -0.7000000000000001,0.9 L141.40000076293944,31 c0.4,-1.6 -0.1,-3.4 -1.3,-4.7 c-1.9,-1.9 -5.1,-1.9 -7,0 c-1.9,1.9 -1.9,5.1 0,7 c1.9,1.9 5.1,1.9 7,0 c0.30000000000000004,-0.30000000000000004 0.5,-0.6000000000000001 0.7000000000000001,-0.9 L159.20000076293945,40 c-0.4,1.6 0.1,3.4 1.3,4.7 c1.8,1.8 4.5,1.9 6.4,0.5 l14.1,14.1 c0,0.1 -0.1,0.1 -0.1,0.2 s-0.1,0.1 -0.1,0.2 s-0.1,0.1 -0.1,0.2 s-0.1,0.1 -0.1,0.2 s-0.1,0.1 -0.1,0.2 s-0.1,0.1 -0.1,0.2 s-0.1,0.2 -0.1,0.2 c0,0.1 0,0.1 -0.1,0.2 c0,0.1 0,0.2 -0.1,0.2 v0.2 H160.20000076293945 c-0.4,-2.4 -2.4,-4.2 -4.9,-4.2 c-1.8,0 -3.4,0.9 -4.2,2.4 L132.70000076293945,52 c0.1,-0.4 0.1,-0.8 0.1,-1.1 c0,-2.7 -2.2,-5 -5,-5 s-5,2.2 -5,5 c0,2.7 2.2,5 5,5 c1.8,0 3.4,-0.9 4.2,-2.4 l18.4,7.6 c-0.1,0.4 -0.1,0.8 -0.1,1.1 c0,0.4 0.1,0.8 0.1,1.1 L132.10000076293946,71 c-0.9,-1.4 -2.4,-2.4 -4.2,-2.4 c-2.7,0 -5,2.2 -5,5 c0,2.7 2.2,5 5,5 s5,-2.2 5,-5 c0,-0.4 -0.1,-0.8 -0.1,-1.1 l18.4,-7.6 c0.9,1.4 2.4,2.4 4.2,2.4 c2.5,0 4.5,-1.8 4.9,-4.2 H180.20000076293945 c0,0.2 0.1,0.5 0.2,0.7000000000000001 c0,0.2 0.1,0.30000000000000004 0.2,0.5 c0.1,0.30000000000000004 0.30000000000000004,0.6000000000000001 0.5,0.8 l0.1,0.1 l-14,14 c-1.9,-1.4 -4.7,-1.2 -6.4,0.5 c-1.3,1.3 -1.7000000000000002,3 -1.3,4.7 l-18.4,7.6 c-0.2,-0.30000000000000004 -0.4,-0.6000000000000001 -0.7000000000000001,-0.9 c-1.9,-1.9 -5.1,-1.9 -7,0 c-1.9,1.9 -1.9,5.1 0,7 c1.9,1.9 5.1,1.9 7,0 c1.3,-1.3 1.7000000000000002,-3 1.3,-4.7 l18.4,-7.6 c0.2,0.30000000000000004 0.4,0.6000000000000001 0.7000000000000001,0.9 c0.30000000000000004,0.30000000000000004 0.6000000000000001,0.5 0.9,0.7000000000000001 l-7.6,18.4 c-1.6,-0.4 -3.4,0.1 -4.7,1.3 c-1.9,1.9 -1.9,5.1 0,7 c1.9,1.9 5.1,1.9 7,0 c1.9,-1.9 1.9,-5.1 0,-7 c-0.30000000000000004,-0.30000000000000004 -0.6000000000000001,-0.5 -0.9,-0.7000000000000001 l7.6,-18.4 c1.6,0.4 3.4,-0.1 4.7,-1.3 c1.8,-1.8 1.9,-4.5 0.5,-6.4 l14,-14 c0.6000000000000001,0.5 1.4,0.8 2.2,0.9 V87 c-2.4,0.4 -4.2,2.4 -4.2,4.9 c0,1.8 0.9,3.4 2.4,4.2 l-7.6,18.4 c-0.4,-0.1 -0.8,-0.1 -1.1,-0.1 c-2.7,0 -5,2.2 -5,5 s2.2,5 5,5 s5,-2.2 5,-5 c0,-1.8 -0.9,-3.4 -2.4,-4.2 l7.6,-18.4 c0.4,0.1 0.8,0.1 1.1,0.1 s0.8,-0.1 1.1,-0.1 l7.6,18.4 c-1.4,0.9 -2.4,2.4 -2.4,4.2 c0,2.7 2.2,5 5,5 c2.7,0 5,-2.2 5,-5 s-2.2,-5 -5,-5 c-0.4,0 -0.8,0.1 -1.1,0.1 l-7.6,-18.4 c1.4,-0.9 2.4,-2.4 2.4,-4.2 c0,-2.5 -1.8,-4.5 -4.2,-4.9 V67.1 c0.8,-0.1 1.5,-0.4 2.2,-0.9 l14,14 c-1.4,1.9 -1.2,4.7 0.5,6.4 c1.3,1.3 3,1.7000000000000002 4.7,1.3 l7.6,18.4 c-0.30000000000000004,0.2 -0.6000000000000001,0.4 -0.9,0.7000000000000001 c-1.9,1.9 -1.9,5.1 0,7 c1.9,1.9 5.1,1.9 7,0 c1.9,-1.9 1.9,-5.1 0,-7 c-1.3,-1.3 -3,-1.7000000000000002 -4.7,-1.3 l-7.6,-18.4 c0.30000000000000004,-0.2 0.6000000000000001,-0.4 0.9,-0.7000000000000001 c0.30000000000000004,-0.30000000000000004 0.5,-0.6000000000000001 0.7000000000000001,-0.9 l18.4,7.6 c-0.4,1.6 0.1,3.4 1.3,4.7 c1.9,1.9 5.1,1.9 7,0 c1.9,-1.9 1.9,-5.1 0,-7 c-1.9,-1.9 -5.1,-1.9 -7,0 c-0.30000000000000004,0.30000000000000004 -0.5,0.6000000000000001 -0.7000000000000001,0.9 l-18.4,-7.6 c0.4,-1.6 -0.1,-3.4 -1.3,-4.7 c-1.8,-1.8 -4.5,-1.9 -6.4,-0.5 l-14,-14 l0.1,-0.1 c0.2,-0.30000000000000004 0.30000000000000004,-0.5 0.5,-0.8 c0.1,-0.1 0.1,-0.30000000000000004 0.2,-0.5 s0.1,-0.5 0.2,-0.7000000000000001 h19.9 c0.4,2.4 2.4,4.2 4.9,4.2 c1.8,0 3.4,-0.9 4.2,-2.4 l18.4,7.6 c-0.1,0.4 -0.1,0.8 -0.1,1.1 c0,2.7 2.2,5 5,5 c2.7,0 5,-2.2 5,-5 c-0.5,-2.6 -2.8,-4.8 -5.5,-4.8 z" fill="url(#SVGID_1_)" id="svg_1" class=""/><path class="st1" d="M3.1000007629394517,167.7 h-3.1 v-5.4 h3 v-1.1 c0,-5.6 3.2,-9 8.7,-9 c1,0 2.5,0.2 2.5,0.2 v5.7 s-1.2,-0.4 -2.2,-0.4 c-2,0 -3.2,1 -3.2,4.6 h4.5 v5.4 h-4.4 v21.8 h-5.9 v-21.8 zM28.900000762939456,152.1 c2.2,0 3.9,1.8 3.9,3.9 c0,2.2 -1.8,3.9 -3.9,3.9 c-2.2,0 -3.9,-1.8 -3.9,-3.9 c0,-2.1 1.8,-3.9 3.9,-3.9 zm3.1,37.3 h-6.3 v-27.2 h6.3 v27.2 zM48.00000076293945,155.5 h6 v10.3 s2.3,-4.1 8.5,-4.1 c8.1,0 12.8,6.9 12.8,13.8 c0,7.3 -4.8,14.6 -13.1,14.6 c-3.6,0 -6.3,-1.5 -8.5,-4.5 v3.9 h-5.8 v-34 zm13.6,12.1 c-5,0 -7.7,4.2 -7.7,8.2 c0,4.5 3.1,8.5 7.7,8.5 c5.3,0 7.3,-3.8 7.3,-8.4 c0,-5.3 -2.7,-8.3 -7.3,-8.3 zM101.10000076293946,167.6 c-4.1,0 -5.5,4 -5.5,7 v14.8 h-6 v-27.2 h5.8 v3.9 s1.6,-4.6 7.2,-4.6 c1,0 2.1,0.1 3.3,0.6000000000000001 l-1.9,6 c-0.2,0.1 -1.7000000000000002,-0.5 -2.9,-0.5 zM130.30000076293945,161.6 c8.4,0 14.4,6.4 14.4,14.3 s-5.4,14.3 -14.3,14.3 c-8.1,0 -14.6,-5.7 -14.6,-14.3 c0,-8 6.5,-14.3 14.5,-14.3 zm-8.2,14.3 c0,4.6 3.1,8.6 8.1,8.6 c5.3,0 8.2,-3.9 8.2,-8.5 s-2.7,-8.7 -8.2,-8.7 c-4.9,0 -8.1,4 -8.1,8.6 zM170.60000076293946,176.6 c0,-7.9 5.4,-14.9 14.6,-14.9 c2.8,0 5.3,0.7000000000000001 7.6,2.1 v6 s-3.3,-2.4 -7.3,-2.4 c-5.5,0 -8.6,3.6 -8.6,9.1 c0,4.5 3.1,8 8.6,8 c3.1,0 5.7,-1.5 7.5,-2.7 v6.1 s-3.1,2.2 -7.8,2.2 c-7.8,0 -14.6,-5.2 -14.6,-13.5 zM213.60000076293946,189.4 h-6.3 v-34.6 h6.3 v34.6 zM227.90000076293944,176 c0,-7.6 4.6,-14.3 12.9,-14.3 c3.8,0 7.3,1.6 8.8,4.1 v-3.5 h5.7 v27.2 h-5.7 v-3.7 s-2.5,4.3 -8.9,4.3 c-7.8,0 -12.8,-6.1 -12.8,-14.1 zm14,-9 c-5,0 -7.5,4.4 -7.5,8.9 c0,5.3 2.6,8.9 7.3,8.9 c5.4,0 7.7,-4.6 7.7,-9.3 c-0.1,-4.8 -3.1,-8.5 -7.5,-8.5 zM282.70000076293945,167.6 c-4.1,0 -5.5,4 -5.5,7 v14.8 h-6 v-27.2 h5.8 v3.9 s1.6,-4.6 7.2,-4.6 c1,0 2.1,0.1 3.3,0.6000000000000001 l-1.9,6 c-0.1,0.1 -1.6,-0.5 -2.9,-0.5 zM302.3000007629395,152.1 c2.2,0 3.9,1.8 3.9,3.9 c0,2.2 -1.8,3.9 -3.9,3.9 c-2.2,0 -3.9,-1.8 -3.9,-3.9 c-0.1,-2.1 1.7000000000000002,-3.9 3.9,-3.9 zm3.1,37.3 h-6.3 v-27.2 h6.3 v27.2 zM321.40000076293944,189.4 V168 h-3.1 v-5.7 h3.1 v-7.4 h6.2 v7.4 h4.5 v5.7 h-4.5 v21.5 h-6.2 zM341.60000076293943,162.3 h6.8 l8.3,17 l7.1,-17 h6.2 L353.3000007629395,201 h-6.7 l7.1,-15 l-12.1,-23.7 z" id="svg_2"/></g></svg>