<?xml version="1.0" encoding="utf-8"?>
<!-- Generator: Adobe Illustrator 22.1.0, SVG Export Plug-In . SVG Version: 6.00 Build 0)  -->
<svg version="1.1" id="D" xmlns="http://www.w3.org/2000/svg" xmlns:xlink="http://www.w3.org/1999/xlink" x="0px" y="0px"
	 viewBox="0 0 424 256" style="enable-background:new 0 0 424 256;" xml:space="preserve">
<style type="text/css">
	.st0{fill:url(#SVGID_1_);}
	.st1{fill:#1F1E33;}
</style>
<g>
	<linearGradient id="SVGID_1_" gradientUnits="userSpaceOnUse" x1="167.8798" y1="133.1356" x2="255.7601" y2="45.2553">
		<stop  offset="0" style="stop-color:#48BCB9"/>
		<stop  offset="0.3342" style="stop-color:#5891AD"/>
		<stop  offset="1" style="stop-color:#7D3392"/>
	</linearGradient>
	<path class="st0" d="M269,95.7c-1.8,0-3.4,0.9-4.2,2.4l-18.4-7.6c0.1-0.4,0.1-0.8,0.1-1.1c0-0.4-0.1-0.8-0.1-1.1l18.4-7.6
		c0.9,1.4,2.4,2.4,4.2,2.4c2.7,0,5-2.2,5-5s-2.2-5-5-5c-2.7,0-5,2.2-5,5c0,0.4,0.1,0.8,0.1,1.1l-18.4,7.6c-0.9-1.4-2.4-2.4-4.2-2.4
		c-2.5,0-4.5,1.8-4.9,4.2h-19.9c0-0.1,0-0.2,0-0.2c0-0.1,0-0.2-0.1-0.2c0-0.1,0-0.2-0.1-0.2c0-0.1-0.1-0.2-0.1-0.2
		c0-0.1-0.1-0.1-0.1-0.2c0-0.1-0.1-0.1-0.1-0.2c0-0.1-0.1-0.2-0.1-0.2c0-0.1-0.1-0.1-0.1-0.2c0-0.1-0.1-0.1-0.1-0.2
		c0-0.1-0.1-0.1-0.1-0.2l14.1-14.1c1.9,1.4,4.7,1.2,6.4-0.5c1.3-1.3,1.7-3,1.3-4.7l18.4-7.6c0.2,0.3,0.4,0.6,0.7,0.9
		c1.9,1.9,5.1,1.9,7,0c1.9-1.9,1.9-5.1,0-7c-1.9-1.9-5.1-1.9-7,0c-1.3,1.3-1.7,3-1.3,4.7L237,65.6c-0.2-0.3-0.4-0.6-0.7-0.9
		c-0.3-0.3-0.6-0.5-0.9-0.7l7.6-18.4c1.6,0.4,3.4-0.1,4.7-1.3c1.9-1.9,1.9-5.1,0-7c-1.9-1.9-5.1-1.9-7,0c-1.9,1.9-1.9,5.1,0,7
		c0.3,0.3,0.6,0.5,0.9,0.7L234,63.4c-1.6-0.4-3.4,0.1-4.7,1.3c-1.8,1.8-1.9,4.5-0.5,6.4l-14.1,14.1c-0.1,0-0.1-0.1-0.2-0.1
		c-0.1,0-0.1-0.1-0.2-0.1c-0.1,0-0.1-0.1-0.2-0.1c-0.1,0-0.2-0.1-0.2-0.1c-0.1,0-0.1-0.1-0.2-0.1c-0.1,0-0.1-0.1-0.2-0.1
		c-0.1,0-0.2-0.1-0.2-0.1c-0.1,0-0.2,0-0.2-0.1c-0.1,0-0.2,0-0.2-0.1c-0.1,0-0.1,0-0.2,0V64.4c2.4-0.4,4.2-2.4,4.2-4.9
		c0-1.8-0.9-3.4-2.4-4.2l7.6-18.4c0.4,0.1,0.8,0.1,1.1,0.1c2.7,0,5-2.2,5-5s-2.2-5-5-5c-2.7,0-5,2.2-5,5c0,1.8,0.9,3.4,2.4,4.2
		L213,54.7c-0.4-0.1-0.8-0.1-1.1-0.1s-0.8,0.1-1.1,0.1L203,36.2c1.4-0.9,2.4-2.4,2.4-4.2c0-2.7-2.2-5-5-5s-5,2.2-5,5s2.2,5,5,5
		c0.4,0,0.8-0.1,1.1-0.1l7.6,18.4c-1.4,0.9-2.4,2.4-2.4,4.2c0,2.5,1.8,4.5,4.2,4.9v19.9c-0.1,0-0.1,0-0.2,0c-0.1,0-0.2,0-0.2,0.1
		c-0.1,0-0.2,0-0.2,0.1c-0.1,0-0.2,0.1-0.2,0.1c-0.1,0-0.1,0.1-0.2,0.1c-0.1,0-0.1,0.1-0.2,0.1c-0.1,0-0.2,0.1-0.2,0.1
		c-0.1,0-0.1,0.1-0.2,0.1c-0.1,0-0.1,0.1-0.2,0.1c-0.1,0-0.1,0.1-0.2,0.1l-14.1-14.1c1.4-1.9,1.2-4.7-0.5-6.4
		c-1.3-1.3-3-1.7-4.7-1.3L182,44.9c0.3-0.2,0.6-0.4,0.9-0.7c1.9-1.9,1.9-5.1,0-7c-1.9-1.9-5.1-1.9-7,0c-1.9,1.9-1.9,5.1,0,7
		c1.3,1.3,3,1.7,4.7,1.3l7.6,18.4c-0.3,0.2-0.6,0.4-0.9,0.7c-0.3,0.3-0.5,0.6-0.7,0.9L168.2,58c0.4-1.6-0.1-3.4-1.3-4.7
		c-1.9-1.9-5.1-1.9-7,0c-1.9,1.9-1.9,5.1,0,7c1.9,1.9,5.1,1.9,7,0c0.3-0.3,0.5-0.6,0.7-0.9L186,67c-0.4,1.6,0.1,3.4,1.3,4.7
		c1.8,1.8,4.5,1.9,6.4,0.5l14.1,14.1c0,0.1-0.1,0.1-0.1,0.2c0,0.1-0.1,0.1-0.1,0.2c0,0.1-0.1,0.1-0.1,0.2c0,0.1-0.1,0.1-0.1,0.2
		c0,0.1-0.1,0.1-0.1,0.2c0,0.1-0.1,0.1-0.1,0.2c0,0.1-0.1,0.2-0.1,0.2c0,0.1,0,0.1-0.1,0.2c0,0.1,0,0.2-0.1,0.2c0,0.1,0,0.2,0,0.2
		H187c-0.4-2.4-2.4-4.2-4.9-4.2c-1.8,0-3.4,0.9-4.2,2.4L159.5,79c0.1-0.4,0.1-0.8,0.1-1.1c0-2.7-2.2-5-5-5s-5,2.2-5,5
		c0,2.7,2.2,5,5,5c1.8,0,3.4-0.9,4.2-2.4l18.4,7.6c-0.1,0.4-0.1,0.8-0.1,1.1c0,0.4,0.1,0.8,0.1,1.1L158.9,98
		c-0.9-1.4-2.4-2.4-4.2-2.4c-2.7,0-5,2.2-5,5c0,2.7,2.2,5,5,5s5-2.2,5-5c0-0.4-0.1-0.8-0.1-1.1l18.4-7.6c0.9,1.4,2.4,2.4,4.2,2.4
		c2.5,0,4.5-1.8,4.9-4.2h19.9c0,0.2,0.1,0.5,0.2,0.7c0,0.2,0.1,0.3,0.2,0.5c0.1,0.3,0.3,0.6,0.5,0.8c0,0,0.1,0.1,0.1,0.1l-14,14
		c-1.9-1.4-4.7-1.2-6.4,0.5c-1.3,1.3-1.7,3-1.3,4.7l-18.4,7.6c-0.2-0.3-0.4-0.6-0.7-0.9c-1.9-1.9-5.1-1.9-7,0c-1.9,1.9-1.9,5.1,0,7
		c1.9,1.9,5.1,1.9,7,0c1.3-1.3,1.7-3,1.3-4.7l18.4-7.6c0.2,0.3,0.4,0.6,0.7,0.9c0.3,0.3,0.6,0.5,0.9,0.7l-7.6,18.4
		c-1.6-0.4-3.4,0.1-4.7,1.3c-1.9,1.9-1.9,5.1,0,7c1.9,1.9,5.1,1.9,7,0c1.9-1.9,1.9-5.1,0-7c-0.3-0.3-0.6-0.5-0.9-0.7l7.6-18.4
		c1.6,0.4,3.4-0.1,4.7-1.3c1.8-1.8,1.9-4.5,0.5-6.4l14-14c0.6,0.5,1.4,0.8,2.2,0.9V114c-2.4,0.4-4.2,2.4-4.2,4.9
		c0,1.8,0.9,3.4,2.4,4.2l-7.6,18.4c-0.4-0.1-0.8-0.1-1.1-0.1c-2.7,0-5,2.2-5,5s2.2,5,5,5s5-2.2,5-5c0-1.8-0.9-3.4-2.4-4.2l7.6-18.4
		c0.4,0.1,0.8,0.1,1.1,0.1s0.8-0.1,1.1-0.1l7.6,18.4c-1.4,0.9-2.4,2.4-2.4,4.2c0,2.7,2.2,5,5,5c2.7,0,5-2.2,5-5s-2.2-5-5-5
		c-0.4,0-0.8,0.1-1.1,0.1l-7.6-18.4c1.4-0.9,2.4-2.4,2.4-4.2c0-2.5-1.8-4.5-4.2-4.9V94.1c0.8-0.1,1.5-0.4,2.2-0.9l14,14
		c-1.4,1.9-1.2,4.7,0.5,6.4c1.3,1.3,3,1.7,4.7,1.3l7.6,18.4c-0.3,0.2-0.6,0.4-0.9,0.7c-1.9,1.9-1.9,5.1,0,7c1.9,1.9,5.1,1.9,7,0
		c1.9-1.9,1.9-5.1,0-7c-1.3-1.3-3-1.7-4.7-1.3l-7.6-18.4c0.3-0.2,0.6-0.4,0.9-0.7c0.3-0.3,0.5-0.6,0.7-0.9l18.4,7.6
		c-0.4,1.6,0.1,3.4,1.3,4.7c1.9,1.9,5.1,1.9,7,0c1.9-1.9,1.9-5.1,0-7c-1.9-1.9-5.1-1.9-7,0c-0.3,0.3-0.5,0.6-0.7,0.9l-18.4-7.6
		c0.4-1.6-0.1-3.4-1.3-4.7c-1.8-1.8-4.5-1.9-6.4-0.5l-14-14c0,0,0.1-0.1,0.1-0.1c0.2-0.3,0.3-0.5,0.5-0.8c0.1-0.1,0.1-0.3,0.2-0.5
		c0.1-0.2,0.1-0.5,0.2-0.7h19.9c0.4,2.4,2.4,4.2,4.9,4.2c1.8,0,3.4-0.9,4.2-2.4l18.4,7.6c-0.1,0.4-0.1,0.8-0.1,1.1c0,2.7,2.2,5,5,5
		c2.7,0,5-2.2,5-5C274,97.9,271.7,95.7,269,95.7z"/>
	<g>
		<path class="st1" d="M29.9,194.7h-3.1v-5.4h3c0,0,0-0.6,0-1.1c0-5.6,3.2-9,8.7-9c1,0,2.5,0.2,2.5,0.2v5.7c0,0-1.2-0.4-2.2-0.4
			c-2,0-3.2,1-3.2,4.6h4.5v5.4h-4.4v21.8h-5.9V194.7z"/>
		<path class="st1" d="M55.7,179.1c2.2,0,3.9,1.8,3.9,3.9c0,2.2-1.8,3.9-3.9,3.9c-2.2,0-3.9-1.8-3.9-3.9
			C51.8,180.9,53.6,179.1,55.7,179.1z M58.8,216.4h-6.3v-27.2h6.3V216.4z"/>
		<path class="st1" d="M74.8,182.5h6v10.3c0,0,2.3-4.1,8.5-4.1c8.1,0,12.8,6.9,12.8,13.8c0,7.3-4.8,14.6-13.1,14.6
			c-3.6,0-6.3-1.5-8.5-4.5v3.9h-5.8V182.5z M88.4,194.6c-5,0-7.7,4.2-7.7,8.2c0,4.5,3.1,8.5,7.7,8.5c5.3,0,7.3-3.8,7.3-8.4
			C95.7,197.6,93,194.6,88.4,194.6z"/>
		<path class="st1" d="M127.9,194.6c-4.1,0-5.5,4-5.5,7c0,6,0,14.8,0,14.8h-6v-27.2h5.8v3.9c0,0,1.6-4.6,7.2-4.6
			c1,0,2.1,0.1,3.3,0.6l-1.9,6C130.6,195.2,129.1,194.6,127.9,194.6z"/>
		<path class="st1" d="M157.1,188.6c8.4,0,14.4,6.4,14.4,14.3c0,7.9-5.4,14.3-14.3,14.3c-8.1,0-14.6-5.7-14.6-14.3
			C142.6,194.9,149.1,188.6,157.1,188.6z M148.9,202.9c0,4.6,3.1,8.6,8.1,8.6c5.3,0,8.2-3.9,8.2-8.5c0-4.6-2.7-8.7-8.2-8.7
			C152.1,194.3,148.9,198.3,148.9,202.9z"/>
		<path class="st1" d="M197.4,203.6c0-7.9,5.4-14.9,14.6-14.9c2.8,0,5.3,0.7,7.6,2.1v6c0,0-3.3-2.4-7.3-2.4c-5.5,0-8.6,3.6-8.6,9.1
			c0,4.5,3.1,8,8.6,8c3.1,0,5.7-1.5,7.5-2.7v6.1c0,0-3.1,2.2-7.8,2.2C204.2,217.1,197.4,211.9,197.4,203.6z"/>
		<path class="st1" d="M240.4,216.4h-6.3v-34.6h6.3V216.4z"/>
		<path class="st1" d="M254.7,203c0-7.6,4.6-14.3,12.9-14.3c3.8,0,7.3,1.6,8.8,4.1v-3.5h5.7v27.2h-5.7v-3.7c0,0-2.5,4.3-8.9,4.3
			C259.7,217.1,254.7,211,254.7,203z M268.7,194c-5,0-7.5,4.4-7.5,8.9c0,5.3,2.6,8.9,7.3,8.9c5.4,0,7.7-4.6,7.7-9.3
			C276.1,197.7,273.1,194,268.7,194z"/>
		<path class="st1" d="M309.5,194.6c-4.1,0-5.5,4-5.5,7c0,6,0,14.8,0,14.8h-6v-27.2h5.8v3.9c0,0,1.6-4.6,7.2-4.6
			c1,0,2.1,0.1,3.3,0.6l-1.9,6C312.3,195.2,310.8,194.6,309.5,194.6z"/>
		<path class="st1" d="M329.1,179.1c2.2,0,3.9,1.8,3.9,3.9c0,2.2-1.8,3.9-3.9,3.9c-2.2,0-3.9-1.8-3.9-3.9
			C325.1,180.9,326.9,179.1,329.1,179.1z M332.2,216.4h-6.3v-27.2h6.3V216.4z"/>
		<path class="st1" d="M348.2,216.4V195h-3.1v-5.7h3.1v-7.4h6.2v7.4h4.5v5.7h-4.5v21.5H348.2z"/>
		<path class="st1" d="M368.4,189.3h6.8l8.3,17l7.1-17h6.2L380.1,228h-6.7l7.1-15L368.4,189.3z"/>
	</g>
</g>
</svg>
